Coordinates
version=1
nRows=19
nColumns=36
inDegrees=yes

Units are S.I. units (second, meters, Newtons, ...)
If the header above contains a line with 'inDegrees', this indicates whether rotational values are in degrees (yes) or radians (no).

endheader
time	pelvis_tilt	pelvis_list	pelvis_rotation	pelvis_tx	pelvis_ty	pelvis_tz	hip_flexion_r	hip_adduction_r	hip_rotation_r	knee_angle_r	knee_angle_r_beta	ankle_angle_r	subtalar_angle_r	mtp_angle_r	hip_flexion_l	hip_adduction_l	hip_rotation_l	knee_angle_l	knee_angle_l_beta	ankle_angle_l	subtalar_angle_l	mtp_angle_l	lumbar_extension	lumbar_bending	lumbar_rotation	arm_flex_r	arm_add_r	arm_rot_r	elbow_flex_r	pro_sup_r	arm_flex_l	arm_add_l	arm_rot_l	elbow_flex_l	pro_sup_l
      0.00000000	      4.54630002	      0.52460191	     -2.44970733	      0.47183470	      0.90979438	      0.75283837	    -10.81815633	      2.43239068	      3.06541257	      8.24520897	      0.14390604	     10.62333008	     -7.25491231	     -7.17422742	     29.67245409	      0.43951884	     -0.73174678	     39.43357316	      0.68824569	     10.63233198	    -10.95975535	     -7.17422742	    -13.56024270	      0.40316228	      4.89229169	     13.12500041	    -15.31445473	     -2.53384182	     37.43902669	     90.01121249	      9.79451692	    -10.21026116	      9.67779360	     18.69420785	     88.48456153
      0.01666670	      5.27005930	     -0.40422698	     -3.59508757	      0.47120226	      0.90196922	      0.75168861	    -13.02778602	      3.10105664	      3.72395043	      7.39604862	      0.12908540	     11.89844385	     -6.20791025	     -7.25725816	     30.16632479	     -0.84517163	     -1.42372661	     36.62844249	      0.63928692	     10.96993207	    -10.30046275	     -7.25725816	    -14.78334509	      1.07797271	      5.86410104	     14.21818665	    -16.60616964	     -1.88815974	     41.18499716	     90.94150364	      9.68702151	    -10.22211442	     10.04297663	     19.05252627	     93.37946394
      0.03333330	      5.81451331	     -0.07905121	     -4.15097139	      0.46751774	      0.89874922	      0.74871013	    -15.17338147	      2.53963022	      3.72655576	      6.29209404	      0.10981776	     12.68618855	     -5.93640842	     -7.24176143	     30.11151149	     -0.44224940	     -1.13316884	     32.22625051	      0.56245418	     11.53894166	     -9.12207296	     -7.24176143	    -15.72114680	      0.79810081	      5.37240169	     17.06487662	    -17.41387381	      0.59483824	     42.26265941	     92.03401924	      9.19624793	    -10.67255555	     10.44713708	     17.73847007	     94.93598109
      0.05000000	      5.61167134	      0.34404119	     -4.78974738	      0.46673811	      0.89561524	      0.74642977	    -15.92313559	      1.83443788	      3.38933791	      6.16291539	      0.10756317	     14.87476303	     -4.21116129	     -7.24095165	     30.57214829	     -0.22608381	     -1.21876048	     28.21612922	      0.49246436	     12.70499274	     -7.71204510	     -7.24095165	    -15.55062967	      0.37952897	      4.84848812	     19.77344676	    -17.64815221	      2.22545431	     42.10049527	     92.56203924	      8.50142657	    -10.90886700	     10.04137755	     15.73414407	     95.82335999
      0.06666670	      5.64071486	      0.64706159	     -5.30075299	      0.46747038	      0.89270410	      0.74573532	    -17.01922004	      1.34993008	      3.85885352	      6.00398884	      0.10478937	     16.65607970	     -3.51702719	     -7.25412962	     30.91277296	     -0.03853940	     -0.98987069	     26.24304962	      0.45802762	     14.49566987	     -6.42845128	     -7.25412962	    -15.75362817	     -0.15479146	      4.70530669	     21.63236237	    -17.65394615	      2.39373375	     42.24663050	     92.88331207	      8.18266646	    -11.06211183	      9.65269459	     14.03925116	     96.31361256
      0.08333330	      5.69162714	      0.99049087	     -5.46456209	      0.46692617	      0.88886553	      0.74557194	    -17.98695949	      0.84945724	      4.30615839	      6.24126712	      0.10893066	     18.37007611	     -3.05907737	     -7.26787642	     31.48704780	      0.28598552	     -0.53638167	     26.28539645	      0.45876671	     15.83933346	     -5.70949922	     -7.26787642	    -15.90969822	     -0.77769006	      4.39256057	     23.10028837	    -17.40704362	      2.22252691	     42.02657303	     93.32590320	      8.15908685	    -11.24558670	      9.24934227	     12.38403656	     96.97214466
      0.10000000	      5.54267286	      1.35343862	     -5.51256004	      0.46562614	      0.88560351	      0.74543827	    -18.66095312	      0.31428997	      4.89851793	      6.70320311	      0.11699296	     19.63358281	     -3.24871311	     -7.27176708	     32.24482694	      0.64556212	     -0.11048122	     27.73383847	      0.48404680	     16.13655734	     -5.79507401	     -7.27176708	    -15.88784804	     -1.54523093	      4.45223033	     23.70609329	    -17.38648542	      2.08287568	     42.30967898	     93.13742484	      7.98106784	    -11.51451731	      9.20011924	     12.48416517	     96.77519723
      0.11666670	      5.87050793	      1.44256703	     -5.44646543	      0.46463607	      0.88555495	      0.74555190	    -19.61328169	     -0.00225336	      5.38207591	      7.75020302	      0.13526656	     20.81979951	     -3.65608352	     -7.32607540	     32.12967040	      0.82694490	      0.33410774	     29.74252180	      0.51910493	     15.67166191	     -5.91988252	     -7.32607540	    -16.30431575	     -1.96402445	      4.32410064	     24.47104864	    -16.70320437	      0.54279696	     41.92653017	     95.97547435	      8.79025803	    -11.40817086	      8.16958271	     10.31108747	    100.85288340
      0.13333330	      5.99067480	      1.50222654	     -5.42251971	      0.46499613	      0.88718914	      0.74528431	    -20.20010375	     -0.33087313	      5.96839452	      9.16980663	      0.16004332	     21.23660977	     -4.53925424	     -7.34091674	     31.66759511	      0.93668155	      0.51151778	     31.39074926	      0.54787193	     13.79906007	     -6.27381541	     -7.34091674	    -16.42221969	     -2.47783464	      4.38063995	     24.61311497	    -16.47844470	      0.85659908	     41.52921323	     95.42272582	      9.17674757	    -11.38861175	      8.40846198	      9.42616020	    100.47722043
      0.15000000	      6.01414580	      1.49453833	     -5.34802592	      0.46552520	      0.88851211	      0.74348415	    -20.42958791	     -0.56467419	      6.33792960	     11.09761177	      0.19368986	     20.87688182	     -5.59873118	     -7.35757748	     30.88439401	      1.02398706	      0.67300001	     32.33484698	      0.56434954	     11.34101647	     -6.66202417	     -7.35757748	    -16.49447931	     -2.92682613	      4.44317406	     24.30244124	    -16.22955038	      1.19262029	     41.25317874	     95.30767119	      9.56563893	    -11.30335483	      8.96710787	      8.81076005	    100.52894134
      0.16666670	      5.89817380	      1.45586395	     -5.17029109	      0.46621973	      0.88815367	      0.74026147	    -20.11549661	     -0.68620703	      6.41627314	     13.73090240	      0.23964946	     19.65250692	     -7.06842933	     -7.37411002	     30.05418027	      1.15752532	      0.90231125	     32.81595189	      0.57274641	      9.14344627	     -7.01018847	     -7.37411002	    -16.50387740	     -3.29351832	      4.42270655	     23.59659659	    -15.92377853	      1.09252343	     41.12181394	     95.90304600	      9.91489007	    -11.18830236	      9.55712551	      8.52603127	    101.44701977
      0.18333330	      5.62175918	      1.41405366	     -4.85362309	      0.46780415	      0.88766842	      0.73623154	    -19.01299220	     -0.75848319	      6.02988696	     17.41519924	      0.30395257	     17.54981379	     -8.84339307	     -7.38971893	     29.31355552	      1.40384058	      1.29058672	     33.17275879	      0.57897386	      7.47120825	     -7.60624508	     -7.38971893	    -16.29265494	     -3.55740946	      4.03684966	     22.88282884	    -15.57598283	      1.55704427	     40.58794742	     96.32741031	     10.07420468	    -11.04639426	      9.63357233	      8.39495768	    101.58809684
      0.20000000	      5.38411181	      1.46500574	     -4.50766920	      0.47102746	      0.88932243	      0.73123585	    -17.04944719	     -0.99547527	      5.23303595	     22.62357875	      0.39485594	     14.22191600	    -10.85555937	     -7.40144060	     28.37412738	      1.80968344	      1.65884554	     33.47950123	      0.58432753	      6.53717943	     -8.29696564	     -7.40144060	    -16.02855473	     -3.85218125	      3.48877174	     21.95082431	    -15.18260846	      1.88515767	     39.98634278	     96.75590747	     10.10967486	    -10.94314769	      9.89774706	      8.55623784	    102.07572193
      0.21666670	      5.25982449	      1.83446491	     -4.31109342	      0.47679747	      0.89280750	      0.72504635	    -14.17478714	     -1.80828857	      4.06459551	     29.55547515	      0.51584035	      9.27310829	    -12.73462980	     -7.40470264	     27.02988151	      2.54327963	      1.73151247	     33.54900353	      0.58554057	      6.06060999	     -9.28212852	     -7.40470264	    -15.73205190	     -4.43419290	      2.78999220	     20.61626837	    -14.62436315	      1.92817630	     39.61338254	     96.93530036	      9.78939480	    -10.87069639	      9.94307669	      9.00271138	    102.22275694
      0.23333330	      4.84472236	      2.28234870	     -4.34350830	      0.48475931	      0.89606235	      0.71866871	    -10.16718015	     -2.88147090	      3.22447871	     37.57820296	      0.65586337	      2.24147667	    -14.99791583	     -7.40842578	     25.78576466	      3.32975147	      1.61948849	     33.37234493	      0.58245730	      6.14657507	    -10.36180755	     -7.40842578	    -14.80644488	     -4.99342055	      2.37364699	     18.89666058	    -14.13626004	      1.89872116	     38.79700931	     97.65283803	      9.18040194	    -10.62722532	     10.08433218	      9.47741451	    102.88872949
      0.25000000	      5.00047847	      3.11486429	     -4.63844952	      0.49188265	      0.89958546	      0.71369457	     -6.36353764	     -4.61142671	      2.57467458	     45.53221424	      0.79468705	     -4.41674412	    -15.69631701	     -7.41058964	     23.54272836	      4.48516374	      1.08229223	     32.32167391	      0.56411963	      6.70660821	    -10.80829884	     -7.41058964	    -14.48413084	     -5.96504843	      1.79835521	     17.11563600	    -13.52089512	      1.96161736	     38.24177791	     97.96267757	      8.43792300	    -10.47263125	     10.19434966	      9.87249976	    103.07499602
      0.26666670	      5.00643829	      3.59766489	     -5.17145993	      0.49463647	      0.90448864	      0.71062306	     -2.26621076	     -5.79711076	      2.66824424	     52.60698123	      0.91816503	     -9.58565168	    -16.15841135	     -7.41283174	     21.32383250	      5.19416806	      0.50742015	     30.84850106	      0.53840791	      7.38723183	    -10.96052317	     -7.41283174	    -14.02364345	     -6.52081154	      1.70744137	     15.35663841	    -13.09968859	      1.91204823	     37.35720021	     98.30601555	      7.73415680	    -10.20340689	     10.35350207	     10.57011754	    103.22608724
      0.28333330	      4.79307039	      3.65347512	     -5.65923919	      0.49368223	      0.91097610	      0.70940277	      1.81723840	     -6.18922892	      2.90959056	     58.10219474	      1.01407460	    -11.96924185	    -16.07233529	     -7.42487709	     19.29862734	      5.36974911	      0.05742748	     29.17798422	      0.50925189	      8.01410984	    -10.75319059	     -7.42487709	    -13.35079240	     -6.55239624	      2.00730636	     13.69673747	    -12.72932412	      0.66146953	     36.01244663	    102.53607446	      7.41941991	    -10.00687636	     11.74065309	     11.39905663	    105.81036798
      0.30000000	      5.20017807	      3.53956561	     -6.19327033	      0.49166682	      0.91974401	      0.70979161	      4.71558866	     -6.19035056	      3.09595324	     61.68142498	      1.07654395	    -11.64386332	    -15.43042895	     -7.43066892	     16.41646403	      5.35215398	     -0.46250026	     26.99056005	      0.47107414	      8.26116371	    -10.30461813	     -7.43066892	    -13.53173153	     -6.49230614	      2.10555107	     12.52977191	    -12.46909519	      0.53009402	     34.76290880	    102.41524813	      7.60006120	     -9.74382444	     11.82231940	     11.61832267	    104.93477727
